<?xml version="1.0" encoding="UTF-8" standalone="no"?>
<svg
   xmlns:dc="http://purl.org/dc/elements/1.1/"
   xmlns:cc="http://creativecommons.org/ns#"
   xmlns:rdf="http://www.w3.org/1999/02/22-rdf-syntax-ns#"
   xmlns:svg="http://www.w3.org/2000/svg"
   xmlns="http://www.w3.org/2000/svg"
   xmlns:sodipodi="http://sodipodi.sourceforge.net/DTD/sodipodi-0.dtd"
   xmlns:inkscape="http://www.inkscape.org/namespaces/inkscape"
   width="279"
   height="534"
   viewBox="0 0 73.818748 141.28751"
   version="1.1"
   id="svg8"
   inkscape:version="1.0.2 (e86c870879, 2021-01-15, custom)"
   sodipodi:docname="404-tree.svg">
  <defs
     id="defs2" />
  <sodipodi:namedview
     id="base"
     pagecolor="#ffffff"
     bordercolor="#666666"
     borderopacity="1.0"
     inkscape:pageopacity="0.0"
     inkscape:pageshadow="2"
     inkscape:zoom="2.8"
     inkscape:cx="94.313465"
     inkscape:cy="529.05415"
     inkscape:document-units="px"
     inkscape:current-layer="layer1"
     inkscape:document-rotation="0"
     showgrid="false"
     units="px"
     inkscape:window-width="1267"
     inkscape:window-height="728"
     inkscape:window-x="45"
     inkscape:window-y="11"
     inkscape:window-maximized="0" />
  <metadata
     id="metadata5">
    <rdf:RDF>
      <cc:Work
         rdf:about="">
        <dc:format>image/svg+xml</dc:format>
        <dc:type
           rdf:resource="http://purl.org/dc/dcmitype/StillImage" />
        <dc:title></dc:title>
      </cc:Work>
    </rdf:RDF>
  </metadata>
  <g
     inkscape:label="Layer 1"
     inkscape:groupmode="layer"
     id="layer1">
    <g
       id="g4015"
       transform="translate(-3071.3296,-407.70756)"
       style="display:inline">
      <g
         id="g3973">
        <g
           id="g3969">
          <path
             d="m 3128.4878,467.15487 c 0,26.12412 -12.3032,35.2457 -27.4801,35.2457 -15.1769,0 -27.4801,-9.12158 -27.4801,-35.2457 0,-26.12414 27.4801,-59.35817 27.4801,-59.35817 0,0 27.4801,33.23403 27.4801,59.35817 z"
             fill="#f2f2f2"
             id="path3965"
             style="fill:#272727;fill-opacity:1;stroke-width:0.188108" />
          <polygon
             points="944.123,446.469 944.173,447.428 931.764,684.478 948.343,684.478 950.332,562.037 1010.514,468.952 950.482,552.833 952.162,449.383 1022.119,321.4 952.426,433.154 953.182,386.639 1001.396,294.044 953.382,374.329 954.741,290.669 1006.369,216.952 954.954,277.514 955.804,124.11 950.467,327.188 950.906,318.811 898.414,238.464 950.064,334.893 945.173,428.327 945.027,425.847 884.514,341.294 944.844,434.608 944.232,446.293 "
             fill="#3f3d56"
             id="polygon3967"
             transform="matrix(0.22242863,0,0,0.23539453,2888.9628,385.06486)"
             style="fill:#090909;fill-opacity:1" />
        </g>
        <ellipse
           cx="3108.1274"
           cy="547.11224"
           rx="36.821831"
           ry="1.8613241"
           fill="#3f3d56"
           id="ellipse3971"
           style="fill:#272727;fill-opacity:1;stroke-width:0.169675" />
      </g>
      <g
         id="g4013"
         transform="translate(7.1613096)">
        <circle
           cx="3117.6863"
           cy="530.53882"
           r="10.415652"
           fill="#2f2e41"
           id="circle3975"
           style="fill:#ececec;fill-opacity:1;stroke-width:0.131844" />
        <rect
           x="2819.5276"
           y="1431.1693"
           width="3.1642487"
           height="5.6692791"
           transform="rotate(-17.08345)"
           fill="#2f2e41"
           id="rect3977"
           style="fill:#ececec;fill-opacity:1;stroke-width:0.131844" />
        <ellipse
           cx="2822.1646"
           cy="1436.9044"
           rx="2.636874"
           ry="0.98882776"
           transform="rotate(-17.08345)"
           fill="#2f2e41"
           id="ellipse3979"
           style="stroke-width:0.131844" />
        <ellipse
           style="fill:#ececec;fill-opacity:1;stroke:#111111;stroke-width:0.153253;stroke-miterlimit:4;stroke-dasharray:none;stroke-opacity:1"
           id="ellipse3981"
           cx="2498.7761"
           cy="1931.8929"
           rx="2.7615018"
           ry="2.8828375"
           transform="rotate(-28.052478)" />
        <ellipse
           style="fill:#111111;fill-opacity:1;stroke:none;stroke-width:0.0331339;stroke-miterlimit:4;stroke-dasharray:none;stroke-opacity:1"
           id="ellipse3983"
           cx="2498.7788"
           cy="1931.8245"
           rx="1.8838743"
           ry="2.0195661"
           transform="rotate(-28.052478)" />
        <ellipse
           style="fill:#ececec;fill-opacity:1;stroke:none;stroke-width:0.0152218;stroke-miterlimit:4;stroke-dasharray:none;stroke-opacity:1"
           id="ellipse3985"
           cx="2498.1919"
           cy="1931.2764"
           rx="0.88591695"
           ry="0.9063676"
           transform="rotate(-28.052478)" />
        <ellipse
           style="fill:#ececec;fill-opacity:1;stroke:none;stroke-width:0.00918286;stroke-miterlimit:4;stroke-dasharray:none;stroke-opacity:1"
           id="ellipse3987"
           cx="2499.2195"
           cy="1932.7578"
           rx="0.52626818"
           ry="0.55528188"
           transform="rotate(-28.052478)" />
        <path
           style="fill:#111111;fill-opacity:1;stroke:none;stroke-width:0.0678147px;stroke-linecap:butt;stroke-linejoin:miter;stroke-opacity:1"
           d="m 3109.5137,527.24185 0.1261,0.49744 c 2.5782,-0.58769 3.276,-1.99445 3.3294,-3.80207 l -0.5281,-0.0479 c 0.04,1.62354 -0.8142,2.99254 -2.9277,3.35256 z"
           id="path3989"
           sodipodi:nodetypes="ccccc" />
        <path
           style="fill:#111111;fill-opacity:1;stroke:none;stroke-width:0.0678147px;stroke-linecap:butt;stroke-linejoin:miter;stroke-opacity:1"
           d="m 3119.1387,522.11285 0.3423,0.38233 c -1.9257,1.81239 -3.4824,1.60703 -5.0127,0.64335 l 0.2548,-0.46507 c 1.3249,0.93904 2.9381,0.99286 4.4156,-0.56061 z"
           id="path3991"
           sodipodi:nodetypes="ccccc" />
        <ellipse
           style="fill:#ececec;fill-opacity:1;stroke:#111111;stroke-width:0.153253;stroke-miterlimit:4;stroke-dasharray:none;stroke-opacity:1"
           id="ellipse3993"
           cx="2505.0491"
           cy="1931.8929"
           rx="2.7615018"
           ry="2.8828375"
           transform="rotate(-28.052478)" />
        <ellipse
           style="fill:#111111;fill-opacity:1;stroke:none;stroke-width:0.0331339;stroke-miterlimit:4;stroke-dasharray:none;stroke-opacity:1"
           id="ellipse3995"
           cx="2505.0518"
           cy="1931.8245"
           rx="1.8838743"
           ry="2.0195661"
           transform="rotate(-28.052478)" />
        <ellipse
           style="fill:#ececec;fill-opacity:1;stroke:none;stroke-width:0.0152218;stroke-miterlimit:4;stroke-dasharray:none;stroke-opacity:1"
           id="ellipse3997"
           cx="2504.4648"
           cy="1931.4218"
           rx="0.88591695"
           ry="0.9063676"
           transform="rotate(-28.052478)" />
        <ellipse
           style="fill:#ececec;fill-opacity:1;stroke:none;stroke-width:0.00918286;stroke-miterlimit:4;stroke-dasharray:none;stroke-opacity:1"
           id="ellipse3999"
           cx="2505.5894"
           cy="1932.8304"
           rx="0.52626818"
           ry="0.55528188"
           transform="rotate(-28.052478)" />
        <g
           id="g4009"
           transform="translate(-143.81222,76.969921)">
          <rect
             x="2985.9402"
             y="1399.8291"
             width="3.1642511"
             height="5.6692834"
             transform="rotate(-17.083184)"
             fill="#2f2e41"
             id="rect4001"
             style="stroke-width:0.131844" />
          <ellipse
             cx="2988.5708"
             cy="1405.4458"
             rx="2.636874"
             ry="0.98882776"
             transform="rotate(-17.08345)"
             fill="#2f2e41"
             id="ellipse4003"
             style="stroke-width:0.131844" />
          <path
             d="m 3277.7293,460.94249 c 0,7.2614 -4.3166,9.79682 -9.6417,9.79682 q -0.1851,0 -0.3695,-0.004 c -0.2468,-0.005 -0.4912,-0.017 -0.7326,-0.0335 -4.8059,-0.34013 -8.5397,-3.00596 -8.5397,-9.75923 0,-6.98882 8.9309,-15.80754 9.6018,-16.4602 v -9.9e-4 c 0.026,-0.0253 0.039,-0.0376 0.039,-0.0376 0,0 9.6417,9.23758 9.6417,16.49898 z"
             fill="#6c63ff"
             id="path4005"
             style="fill:#272727;fill-opacity:1;stroke-width:0.131844" />
          <path
             d="m 3267.7362,469.62845 3.5265,-4.92748 -3.5353,5.46851 -0.01,0.56571 c -0.2468,-0.005 -0.4912,-0.017 -0.7326,-0.0335 l 0.3801,-7.26493 -0.01,-0.0564 0.01,-0.0106 0.036,-0.68614 -3.544,-5.48203 3.5551,4.96744 0.01,0.14568 0.2872,-5.48908 -3.0341,-5.66473 3.0712,4.70132 0.2989,-11.37998 v -0.0388 0.0376 l -0.05,8.97381 3.0207,-3.55757 -3.033,4.33064 -0.08,4.91456 2.8203,-4.7166 -2.8321,5.43974 -0.045,2.7322 4.0944,-6.5647 -4.1097,7.51813 z"
             fill="#3f3d56"
             id="path4007"
             style="fill:#999999;fill-opacity:1;stroke-width:0.131844" />
        </g>
        <ellipse
           cx="851.01501"
           cy="3042.5369"
           rx="1.6348975"
           ry="5.2078261"
           transform="rotate(-64.62574)"
           fill="#2f2e41"
           id="ellipse4011"
           style="fill:#ececec;fill-opacity:1;stroke-width:0.131844" />
      </g>
    </g>
  </g>
</svg>
