<?xml version="1.0" encoding="UTF-8" standalone="no"?>
<svg
   xmlns:dc="http://purl.org/dc/elements/1.1/"
   xmlns:cc="http://creativecommons.org/ns#"
   xmlns:rdf="http://www.w3.org/1999/02/22-rdf-syntax-ns#"
   xmlns:svg="http://www.w3.org/2000/svg"
   xmlns="http://www.w3.org/2000/svg"
   xmlns:sodipodi="http://sodipodi.sourceforge.net/DTD/sodipodi-0.dtd"
   xmlns:inkscape="http://www.inkscape.org/namespaces/inkscape"
   width="30"
   height="30"
   enable-background="new 0 0 512 512"
   version="1.1"
   viewBox="0 0 30 30"
   xml:space="preserve"
   id="svg6"
   sodipodi:docname="git.svg"
   inkscape:version="1.0.2 (e86c870879, 2021-01-15, custom)"><metadata
     id="metadata12"><rdf:RDF><cc:Work
         rdf:about=""><dc:format>image/svg+xml</dc:format><dc:type
           rdf:resource="http://purl.org/dc/dcmitype/StillImage" /></cc:Work></rdf:RDF></metadata><defs
     id="defs10" /><sodipodi:namedview
     pagecolor="#ffffff"
     bordercolor="#666666"
     borderopacity="1"
     objecttolerance="10"
     gridtolerance="10"
     guidetolerance="10"
     inkscape:pageopacity="0"
     inkscape:pageshadow="2"
     inkscape:window-width="1366"
     inkscape:window-height="705"
     id="namedview8"
     showgrid="false"
     inkscape:zoom="13.105046"
     inkscape:cx="16.870792"
     inkscape:cy="15.692839"
     inkscape:window-x="-8"
     inkscape:window-y="-8"
     inkscape:window-maximized="1"
     inkscape:current-layer="svg6"
     inkscape:document-rotation="0" /><g
     transform="matrix(.06 0 0 .06 -.54 -.49)"
     id="g4"
     style="fill-opacity:1;fill:#ececec"><path
       d="m259 507c-138 0.5-252-115-249-256 3.2-134 114-245 252-243 137 1.6 250 115 246 256-3.3 134-113 244-250 243zm-29-120c-12-3.9-25-6.8-36-12-23-10-38-28-43-54-3-16-1.8-33 0.2-49 1.8-14 6-28 17-38 0.8-0.8 0.9-3.1 0.4-4.3-5.3-14-4.7-29-0.4-44 1.3-4.4 3.4-4.9 7.2-3.7 10 3.1 18 9.1 25 17 3.7 4 7 8.4 10 13 21-14 80-14 102-0.2 4.2-4.9 8.2-10 13-15 6.7-6.9 14-12 24-15 3.1-0.9 4.8-0.2 5.9 3.1 4.9 14 5.8 29 0 44-1.1 2.9-1 4.8 1.3 7 6.9 6.6 11 15 13 24 4.2 17 5.1 35 3.9 53-1.3 19-8.4 36-22 49-12 11-26 18-41 22-5.6 1.4-11 2.4-17 3.6 7.7 12 9.6 25 9.3 38-0.3 14-0.1 29-0.1 43 0 1.7 0.1 3.5 0.2 5.3 91-17 184-108 173-233-9.5-120-116-212-239-200-115 11-207 114-197 238 9.9 118 105 188 180 197v-26c-4.1 0.6-7.8 1.1-11 1.5-27 3-48-9-60-33-6.5-13-13-26-26-35-1.4-0.9-2.2-2.6-3.4-4.1 1.1-0.8 1.6-1.2 2.2-1.5 0.8-0.3 1.6-0.4 2.4-0.5 9-0.6 18 1 24 7.3 4.4 4.1 8.4 9 12 14 13 20 34 28 56 21 3-0.9 4.7-2.2 5-5.7 0.6-9.4 3.2-18 8.3-26z"
       id="path2"
       style="fill-opacity:1;fill:#ececec" /></g></svg>
